<?xml version="1.0" encoding="UTF-8"?>
<svg version="1.1" xmlns="http://www.w3.org/2000/svg" width="155" height="72">
<path d="M0 0 C7.05053192 4.85823601 13.01397629 11.79381289 15.34765625 20.13671875 C17.32014864 31.76033465 15.71228761 41.29577374 9.03515625 50.96484375 C2.49405429 59.05558333 -6.05189339 63.85982653 -16.421875 65.09765625 C-26.62533448 65.46076869 -35.48350681 62.90867765 -43.4375 56.40234375 C-51.20287416 49.02950499 -55.36581261 40.44173401 -55.71484375 29.71484375 C-55.36581261 18.98795349 -51.20287416 10.40018251 -43.4375 3.02734375 C-30.60230542 -7.47179292 -14.1990692 -8.23896608 0 0 Z M-20.21484375 -3.28515625 C-19.21484375 -1.28515625 -19.21484375 -1.28515625 -19.21484375 -1.28515625 Z M-21.21484375 -0.28515625 C-20.21484375 1.71484375 -20.21484375 1.71484375 -20.21484375 1.71484375 Z M-41.5234375 10.796875 C-46.28035352 16.19097608 -47.71130935 21.66536208 -48.21484375 28.71484375 C-46.56484375 28.71484375 -44.91484375 28.71484375 -43.21484375 28.71484375 C-43.06789063 28.07417969 -42.9209375 27.43351562 -42.76953125 26.7734375 C-40.9336244 19.69358983 -38.51457773 14.48016286 -32.22265625 10.43359375 C-28.65114625 8.54675828 -25.25551656 7.21992785 -21.21484375 6.71484375 C-21.21484375 5.06484375 -21.21484375 3.41484375 -21.21484375 1.71484375 C-29.17386053 1.71484375 -35.82008203 5.39308971 -41.5234375 10.796875 Z M-18.21484375 1.71484375 C-18.21484375 3.36484375 -18.21484375 5.01484375 -18.21484375 6.71484375 C-17.58578125 6.85019531 -16.95671875 6.98554688 -16.30859375 7.125 C-9.01841169 8.9585247 -3.13075923 11.95623168 0.91015625 18.55078125 C2.39075457 21.81094486 3.25014842 25.18379207 3.78515625 28.71484375 C5.43515625 28.71484375 7.08515625 28.71484375 8.78515625 28.71484375 C8.20369727 20.57441804 6.18611832 14.67429064 0.16015625 8.96484375 C-5.23176769 4.55235169 -11.2104027 1.71484375 -18.21484375 1.71484375 Z M-48.21484375 30.71484375 C-47.63338477 38.85526946 -45.61580582 44.75539686 -39.58984375 50.46484375 C-33.92085659 55.09539962 -27.60439143 58.04297642 -20.21484375 57.71484375 C-20.70984375 55.23984375 -20.70984375 55.23984375 -21.21484375 52.71484375 C-21.85550781 52.56789063 -22.49617188 52.4209375 -23.15625 52.26953125 C-30.23609767 50.4336244 -35.44952464 48.01457773 -39.49609375 41.72265625 C-41.38292922 38.15114625 -42.70975965 34.75551656 -43.21484375 30.71484375 C-44.86484375 30.71484375 -46.51484375 30.71484375 -48.21484375 30.71484375 Z M3.78515625 30.71484375 C3.64980469 31.34390625 3.51445313 31.97296875 3.375 32.62109375 C1.5414753 39.91127581 -1.45623168 45.79892827 -8.05078125 49.83984375 C-11.31094486 51.32044207 -14.68379207 52.17983592 -18.21484375 52.71484375 C-18.54484375 54.36484375 -18.87484375 56.01484375 -19.21484375 57.71484375 C-10.10698195 57.28113605 -3.68603045 54.64433858 2.66015625 47.96484375 C6.91249019 42.75548802 8.78515625 37.40709501 8.78515625 30.71484375 C7.13515625 30.71484375 5.48515625 30.71484375 3.78515625 30.71484375 Z " fill="#303B70" transform="translate(55.21484375,5.28515625)"/>
<path d="M0 0 C1.28197266 0.10054687 1.28197266 0.10054687 2.58984375 0.203125 C5.39779789 0.82415751 6.90472229 1.88760254 9.0625 3.75 C8.14485613 6.04410968 7.33551818 7.51898462 5.4375 9.125 C1.66587608 10.11753261 -1.23738637 8.86003409 -4.9375 7.75 C-4.09325683 9.99876525 -4.09325683 9.99876525 -1.5390625 10.6796875 C0.43908144 11.30791694 2.41824697 11.93293902 4.3984375 12.5546875 C7.37938842 13.89218161 8.46575908 14.9319109 10.0625 17.75 C10.5625 21.1875 10.5625 21.1875 10.0625 24.75 C7.52112841 27.90954305 5.91627341 29.46540886 2.0625 30.75 C-4.27874904 31.26765298 -9.43481886 31.31930669 -14.9375 27.75 C-15.2675 28.74 -15.5975 29.73 -15.9375 30.75 C-23.8575 30.75 -31.7775 30.75 -39.9375 30.75 C-39.9375 20.85 -39.9375 10.95 -39.9375 0.75 C-32.0175 0.75 -24.0975 0.75 -15.9375 0.75 C-16.9275 3.06 -17.9175 5.37 -18.9375 7.75 C-22.5675 7.75 -26.1975 7.75 -29.9375 7.75 C-29.9375 9.07 -29.9375 10.39 -29.9375 11.75 C-26.3075 11.75 -22.6775 11.75 -18.9375 11.75 C-18.9375 14.39 -18.9375 17.03 -18.9375 19.75 C-22.5675 19.75 -26.1975 19.75 -29.9375 19.75 C-29.9375 20.74 -29.9375 21.73 -29.9375 22.75 C-25.3175 22.75 -20.6975 22.75 -15.9375 22.75 C-15.6075 23.41 -15.2775 24.07 -14.9375 24.75 C-13.9475 23.43 -12.9575 22.11 -11.9375 20.75 C-11.1640625 20.9665625 -11.1640625 20.9665625 -10.375 21.1875 C-7.25240429 21.90809901 -4.11199308 22.32266439 -0.9375 22.75 C-0.6075 22.09 -0.2775 21.43 0.0625 20.75 C-0.82501953 20.60304688 -0.82501953 20.60304688 -1.73046875 20.453125 C-6.7211374 19.50872441 -10.38364275 18.63703137 -13.9375 14.75 C-15.07162049 11.80128673 -15.05924253 10.24914435 -14.3125 7.1875 C-11.03604742 1.37924315 -6.41749485 -0.57902209 0 0 Z " fill="#303B70" transform="translate(144.9375,11.25)"/>
<path d="M0 0 C3.06303578 -0.08115993 6.12390815 -0.14057409 9.1875 -0.1875 C10.48397461 -0.22520508 10.48397461 -0.22520508 11.80664062 -0.26367188 C16.7071929 -0.32000006 20.03205492 -0.22789183 24 3 C26.32826375 6.21522137 26.39711181 9.10830425 26 13 C24.27636527 16.7919964 22.8433107 18.47640183 19 20 C15.97207178 20.25065631 13.04558972 20.08957617 10 20 C10 23.3 10 26.6 10 30 C3.06640625 30.09765625 3.06640625 30.09765625 1 30 C0 29 0 29 -0.11352539 26.22436523 C-0.10828857 25.01466064 -0.10305176 23.80495605 -0.09765625 22.55859375 C-0.09443359 21.25341797 -0.09121094 19.94824219 -0.08789062 18.60351562 C-0.07953401 17.2148431 -0.07106905 15.82617123 -0.0625 14.4375 C-0.05748666 13.04492344 -0.05292347 11.65234519 -0.04882812 10.25976562 C-0.03699434 6.8398013 -0.0205088 3.41992156 0 0 Z M10 7 C10 8.98 10 10.96 10 13 C11.65 13 13.3 13 15 13 C15.66 11.68 16.32 10.36 17 9 C15.16116119 6.71271266 15.16116119 6.71271266 12.375 6.875 C11.199375 6.936875 11.199375 6.936875 10 7 Z " fill="#303B70" transform="translate(78,12)"/>
<path d="M0 0 C8.58284607 0.89881961 13.22688752 3.49812892 18.7421875 10.26953125 C21.53560417 14.11264797 22.26860962 17.29933173 22 22 C23.65 22 25.3 22 27 22 C26.67 22.66 26.34 23.32 26 24 C17.75 23.67 9.5 23.34 1 23 C2.66679687 21.33320313 4.34445441 19.67642161 6.0625 18.0625 C8.29940553 15.87859157 8.29940553 15.87859157 10 12 C7.03 14.97 4.06 17.94 1 21 C0.07811539 18.23434618 -0.11785222 16.61716298 -0.09765625 13.76953125 C-0.09282227 12.56586914 -0.09282227 12.56586914 -0.08789062 11.33789062 C-0.07951172 10.50451172 -0.07113281 9.67113281 -0.0625 8.8125 C-0.05798828 7.96751953 -0.05347656 7.12253906 -0.04882812 6.25195312 C-0.03705403 4.16793845 -0.0191189 2.08396023 0 0 Z " fill="#EE7F1B" transform="translate(37,12)"/>
<path d="M0 0 C7.26 0 14.52 0 22 0 C20.84941857 9.20465146 18.65482829 13.10230404 11.73046875 18.7421875 C7.88735203 21.53560417 4.70066827 22.26860962 0 22 C-0.33 22.99 -0.66 23.98 -1 25 C-1 17.41 -1 9.82 -1 2 C-0.01 2.495 -0.01 2.495 1 3 C1.33 3.99 1.66 4.98 2 6 C3.62948064 7.22445284 3.62948064 7.22445284 5.5625 8.1875 C6.696875 8.785625 7.83125 9.38375 9 10 C8.3503125 9.36191406 7.700625 8.72382812 7.03125 8.06640625 C6.1959375 7.24011719 5.360625 6.41382813 4.5 5.5625 C3.6646875 4.73878906 2.829375 3.91507813 1.96875 3.06640625 C0 1 0 1 0 0 Z " fill="#EC8A32" transform="translate(37,36)"/>
<path d="M0 0 C12.87 0.495 12.87 0.495 26 1 C25 3 25 3 23.109375 3.8671875 C20.53364837 5.2504481 19.70607136 6.61732154 18.25 9.125 C17.5075 10.40375 16.765 11.6825 16 13 C19.3 9.7 22.6 6.4 26 3 C26.92188461 5.76565382 27.11785222 7.38283702 27.09765625 10.23046875 C27.09443359 11.03291016 27.09121094 11.83535156 27.08789062 12.66210938 C27.07951172 13.49548828 27.07113281 14.32886719 27.0625 15.1875 C27.05798828 16.03248047 27.05347656 16.87746094 27.04882812 17.74804688 C27.03705403 19.83206155 27.0191189 21.91603977 27 24 C19.04795375 23.28539605 14.94100094 21.17511981 9.421875 15.328125 C5.99096674 11.02963074 5.28671051 7.44749962 5 2 C3.35 2 1.7 2 0 2 C0 1.34 0 0.68 0 0 Z " fill="#ED8121" transform="translate(7,34)"/>
<path d="M0 0 C0.33 0 0.66 0 1 0 C1 7.92 1 15.84 1 24 C-0.65 22.35 -2.3 20.7 -4 19 C-5.24318379 18.02613262 -6.51041521 17.0810876 -7.8125 16.1875 C-8.864375 15.465625 -9.91625 14.74375 -11 14 C-7.37 17.63 -3.74 21.26 0 25 C-0.66 25.33 -1.32 25.66 -2 26 C-2.66 25.67 -3.32 25.34 -4 25 C-5.94306657 24.95410661 -5.94306657 24.95410661 -8.1328125 25.12109375 C-8.93847656 25.16943359 -9.74414062 25.21777344 -10.57421875 25.26757812 C-11.41597656 25.32365234 -12.25773437 25.37972656 -13.125 25.4375 C-13.97449219 25.48970703 -14.82398438 25.54191406 -15.69921875 25.59570312 C-17.79979124 25.72551378 -19.89994191 25.8621174 -22 26 C-21.28539605 18.04795375 -19.17511981 13.94100094 -13.328125 8.421875 C-9.02963074 4.99096674 -5.44749962 4.28671051 0 4 C0 2.68 0 1.36 0 0 Z " fill="#EF8B31" transform="translate(34,8)"/>
<path d="M0 0 C0.33 0 0.66 0 1 0 C1.33 9.24 1.66 18.48 2 28 C4.31 26.02 6.62 24.04 9 22 C10.65975389 20.65807132 12.32346641 19.32090525 14 18 C11.53106376 23.34936185 9.37240632 27.31379684 4 30 C11.92 30.33 19.84 30.66 28 31 C28 31.33 28 31.66 28 32 C19.63541234 32.95595288 11.41778343 33.08334439 3 33 C5.97 35.97 8.94 38.94 12 42 C7.94654898 42 6.1784671 40.41839888 3 38 C2.67 37.01 2.34 36.02 2 35 C2 42.59 2 50.18 2 58 C1.01 58.495 1.01 58.495 0 59 C-3.52019402 51.95961196 -2.08065569 41.58163506 -2 34 C-5.3 37.3 -8.6 40.6 -12 44 C-12 40.46048734 -11.28068285 39.63535306 -9.1875 36.875 C-8.66542969 36.17117187 -8.14335937 35.46734375 -7.60546875 34.7421875 C-6 33 -6 33 -3 32 C-10.92 31.67 -18.84 31.34 -27 31 C-27 30.67 -27 30.34 -27 30 C-24.45887768 29.66198848 -21.91723254 29.32946621 -19.375 29 C-18.66214844 28.90460937 -17.94929688 28.80921875 -17.21484375 28.7109375 C-13.11046725 28.18376988 -9.14812775 27.90034528 -5 28 C-4.34 28 -3.68 28 -3 28 C-6.3 24.7 -9.6 21.4 -13 18 C-9.43827265 18 -8.63465243 18.74670717 -5.875 20.875 C-5.17117187 21.40867187 -4.46734375 21.94234375 -3.7421875 22.4921875 C-2 24 -2 24 -1 26 C-1.00785522 24.97845825 -1.00785522 24.97845825 -1.01586914 23.9362793 C-1.03664458 20.85336223 -1.04966198 17.7704599 -1.0625 14.6875 C-1.07087891 13.61564453 -1.07925781 12.54378906 -1.08789062 11.43945312 C-1.09111328 10.41142578 -1.09433594 9.38339844 -1.09765625 8.32421875 C-1.10289307 7.37635498 -1.10812988 6.42849121 -1.11352539 5.4519043 C-1 3 -1 3 0 0 Z " fill="#6D6F90" transform="translate(35,4)"/>
<path d="M0 0 C1.98 0 3.96 0 6 0 C6.33 1.65 6.66 3.3 7 5 C7.33 5 7.66 5 8 5 C8.33 3.35 8.66 1.7 9 0 C16.26 0 23.52 0 31 0 C31 0.66 31 1.32 31 2 C31.66 2 32.32 2 33 2 C33 1.34 33 0.68 33 0 C33.99 0 34.98 0 36 0 C35.01 2.97 34.02 5.94 33 9 C32.34 9 31.68 9 31 9 C30.731875 8.030625 30.46375 7.06125 30.1875 6.0625 C29.795625 5.051875 29.40375 4.04125 29 3 C28.01 2.67 27.02 2.34 26 2 C26 4.31 26 6.62 26 9 C25.01 9 24.02 9 23 9 C23 6.69 23 4.38 23 2 C21.68 2 20.36 2 19 2 C19 3.65 19 5.3 19 7 C19.66 7 20.32 7 21 7 C21 7.66 21 8.32 21 9 C14 9 7 9 0 9 C0 6.03 0 3.06 0 0 Z M3 2 C3.33 2.66 3.66 3.32 4 4 C4.33 3.34 4.66 2.68 5 2 C4.34 2 3.68 2 3 2 Z M15 2 C14.34 2.66 13.68 3.32 13 4 C13.66 4 14.32 4 15 4 C15 4.99 15 5.98 15 7 C15.66 7 16.32 7 17 7 C17 5.35 17 3.7 17 2 C16.34 2 15.68 2 15 2 Z " fill="#303B70" transform="translate(118,49)"/>
<path d="M0 0 C9.66666667 1.20833333 9.66666667 1.20833333 14 5 C14 6.32 14 7.64 14 9 C12.28123436 10.71876564 10.53241532 12.29598156 8.6875 13.875 C8.11386719 14.36742187 7.54023437 14.85984375 6.94921875 15.3671875 C4.66342463 17.28194089 2.32839515 19.13728388 0 21 C0 14.07 0 7.14 0 0 Z " fill="#EC8120" transform="translate(37,12)"/>
<path d="M0 0 C0.92188461 2.76565382 1.11785222 4.38283702 1.09765625 7.23046875 C1.09443359 8.03291016 1.09121094 8.83535156 1.08789062 9.66210938 C1.07532227 10.91217773 1.07532227 10.91217773 1.0625 12.1875 C1.05798828 13.03248047 1.05347656 13.87746094 1.04882812 14.74804688 C1.03705403 16.83206155 1.0191189 18.91603977 1 21 C-5.72204566 20.39081461 -8.74541295 19.26935198 -14 15 C-9.59156563 9.70987876 -4.92440206 4.81191572 0 0 Z " fill="#EF7F19" transform="translate(33,37)"/>
<path d="M0 0 C2.97 0 5.94 0 9 0 C9 0.99 9 1.98 9 3 C9.66 3 10.32 3 11 3 C11 2.01 11 1.02 11 0 C14.3 0 17.6 0 21 0 C21 2.97 21 5.94 21 9 C18.69 9 16.38 9 14 9 C13.67 7.68 13.34 6.36 13 5 C12.34 6.32 11.68 7.64 11 9 C10.01 8.67 9.02 8.34 8 8 C7.67 6.02 7.34 4.04 7 2 C6.01 2 5.02 2 4 2 C4 3.65 4 5.3 4 7 C4.66 7 5.32 7 6 7 C6 7.66 6 8.32 6 9 C4.02 9 2.04 9 0 9 C0 8.34 0 7.68 0 7 C0.66 7 1.32 7 2 7 C2 5.35 2 3.7 2 2 C1.34 2 0.68 2 0 2 C0 1.34 0 0.68 0 0 Z " fill="#303B70" transform="translate(96,49)"/>
<path d="M0 0 C1.32 0.33 2.64 0.66 4 1 C5.32 0.67 6.64 0.34 8 0 C8 2.97 8 5.94 8 9 C7.01 9 6.02 9 5 9 C4.67 8.34 4.34 7.68 4 7 C3.67 7.66 3.34 8.32 3 9 C2.01 9 1.02 9 0 9 C0 6.03 0 3.06 0 0 Z " fill="#303B70" transform="translate(87,49)"/>
<path d="M0 0 C0.99 0 1.98 0 3 0 C3.33 1.98 3.66 3.96 4 6 C5.29633621 4.93354885 5.29633621 4.93354885 5.0625 2.4375 C5.041875 1.633125 5.02125 0.82875 5 0 C5.99 0 6.98 0 8 0 C8.09765625 6.15234375 8.09765625 6.15234375 8 8 C7 9 7 9 4.5625 9.25 C3.716875 9.1675 2.87125 9.085 2 9 C-0.29013653 5.5647952 -0.17842973 4.014669 0 0 Z " fill="#303B70" transform="translate(78,49)"/>
<path d="M0 0 C0.99 0.99 1.98 1.98 3 3 C-5.25 3 -13.5 3 -22 3 C-22 2.67 -22 2.34 -22 2 C-19.45887768 1.66198848 -16.91723254 1.32946621 -14.375 1 C-13.66214844 0.90460937 -12.94929688 0.80921875 -12.21484375 0.7109375 C-3.85969839 -0.36220044 -3.85969839 -0.36220044 0 0 Z " fill="#4D4D73" transform="translate(30,32)"/>
<path d="M0 0 C0.94786377 0.09949951 1.89572754 0.19899902 2.87231445 0.30151367 C3.9003418 0.40141602 4.92836914 0.50131836 5.98754883 0.60424805 C7.59533203 0.78503906 7.59533203 0.78503906 9.2355957 0.96948242 C10.31905273 1.0784082 11.40250977 1.18733398 12.51879883 1.29956055 C15.19706885 1.57092711 17.87287349 1.85727398 20.5480957 2.15698242 C20.2180957 2.81698242 19.8880957 3.47698242 19.5480957 4.15698242 C11.2980957 3.82698242 3.0480957 3.49698242 -5.4519043 3.15698242 C-2.4519043 0.15698242 -2.4519043 0.15698242 0 0 Z " fill="#E8E3E2" transform="translate(43.451904296875,31.843017578125)"/>
<path d="M0 0 C12.87 0.495 12.87 0.495 26 1 C25.67 1.66 25.34 2.32 25 3 C21.5765753 3.97954872 18.6545584 4.04598382 15.13671875 3.66015625 C14.25048828 3.56669922 13.36425781 3.47324219 12.45117188 3.37695312 C11.53916016 3.27318359 10.62714844 3.16941406 9.6875 3.0625 C8.75615234 2.96259766 7.82480469 2.86269531 6.86523438 2.75976562 C4.57600262 2.51323297 2.28776016 2.25977763 0 2 C0 1.34 0 0.68 0 0 Z " fill="#EDEBEB" transform="translate(7,34)"/>
<path d="M0 0 C5.70992843 1.08760541 7.74430808 3.77513112 10.8984375 8.3203125 C11.44371094 9.15175781 11.44371094 9.15175781 12 10 C11.67 10.66 11.34 11.32 11 12 C9.16364422 10.19047409 7.33083792 8.37759362 5.5 6.5625 C4.97535156 6.04623047 4.45070313 5.52996094 3.91015625 4.99804688 C2.58775448 3.68423213 1.29164432 2.34406495 0 1 C0 0.67 0 0.34 0 0 Z " fill="#E8E4E4" transform="translate(37,36)"/>
<path d="M0 0 C4.88049925 3.9419417 9.0580583 8.11950075 13 13 C7.04413408 11.98314484 4.75612245 8.67482994 1.3203125 4.09375 C0 2 0 2 0 0 Z " fill="#EEE7E2" transform="translate(21,21)"/>
<path d="M0 0 C0.66 0.33 1.32 0.66 2 1 C-1.63 4.63 -5.26 8.26 -9 12 C-9 8.46048734 -8.28068285 7.63535306 -6.1875 4.875 C-5.66542969 4.17117187 -5.14335937 3.46734375 -4.60546875 2.7421875 C-3 1 -3 1 0 0 Z " fill="#414875" transform="translate(32,36)"/>
<path d="M0 0 C0 4.3417471 -2.05152557 6.90676843 -5 10 C-8.3125 11.4375 -8.3125 11.4375 -11 12 C-7.49102731 7.81576108 -3.91939465 3.80411834 0 0 Z " fill="#3E4573" transform="translate(48,22)"/>
<path d="M0 0 C3.98376551 1.75285682 7.80177805 4.03743651 11 7 C11.9375 9.8125 11.9375 9.8125 12 12 C7.47384007 8.32167983 3.60575001 4.58913637 0 0 Z " fill="#40426C" transform="translate(22,21)"/>
<path d="M0 0 C0.33 0.99 0.66 1.98 1 3 C-1.85276137 5.93200474 -4.65079784 8.64315404 -8 11 C-8.66 10.67 -9.32 10.34 -10 10 C-6.7 6.7 -3.4 3.4 0 0 Z " fill="#F5EEE8" transform="translate(33,37)"/>
<path d="M0 0 C0.66 0.33 1.32 0.66 2 1 C-0.97 3.97 -3.94 6.94 -7 10 C-7.33 9.01 -7.66 8.02 -8 7 C-5.42215154 4.35247996 -3.08351902 2.05567935 0 0 Z " fill="#F4F0ED" transform="translate(45,23)"/>
<path d="M0 0 C7.48291572 6.15034169 7.48291572 6.15034169 10 10 C6.56244012 8.75865893 3.65119317 7.5565077 1 5 C0.25 2.3125 0.25 2.3125 0 0 Z " fill="#343B6B" transform="translate(37,37)"/>
</svg>
